<?xml version="1.0" encoding="UTF-8"?>
<!--Generator: Apple Native CoreSVG 326-->
<!DOCTYPE svg
PUBLIC "-//W3C//DTD SVG 1.1//EN"
       "http://www.w3.org/Graphics/SVG/1.1/DTD/svg11.dtd">
<svg version="1.1" xmlns="http://www.w3.org/2000/svg" xmlns:xlink="http://www.w3.org/1999/xlink" viewBox="0 0 27.8757 28.0781">
 <g>
  <rect height="28.0781" opacity="0" width="27.8757" x="0" y="0"/>
  <path d="M5.26596 26.0469C5.84409 26.4844 6.54721 26.3125 7.39096 25.7031L13.7503 21.0312L20.1253 25.7031C20.9535 26.3125 21.6566 26.4844 22.2347 26.0469C22.7972 25.625 22.9066 24.9062 22.5628 23.9375L20.0472 16.4531L26.4691 11.8438C27.3128 11.2656 27.6722 10.625 27.4378 9.9375C27.2191 9.28125 26.5628 8.95312 25.5316 8.96875L17.6566 9.03125L15.266 1.5C14.9535 0.515625 14.4691 0 13.7503 0C13.0472 0 12.5628 0.515625 12.2347 1.5L9.84409 9.03125L1.96909 8.96875C0.937839 8.95312 0.297214 9.28125 0.062839 9.9375C-0.155911 10.625 0.203464 11.2656 1.03159 11.8438L7.45346 16.4531L4.93784 23.9375C4.59409 24.9062 4.70346 25.625 5.26596 26.0469ZM7.31284 23.25C7.29721 23.2188 7.29721 23.2031 7.31284 23.1406L9.70346 16.3906C9.87534 15.875 9.78159 15.4688 9.31284 15.1406L3.40659 11.1094C3.35971 11.0625 3.34409 11.0469 3.35971 11.0156C3.37534 10.9844 3.39096 10.9844 3.45346 10.9844L10.6097 11.1406C11.1566 11.1562 11.5003 10.9375 11.6722 10.3906L13.6878 3.53125C13.7035 3.46875 13.7191 3.45312 13.7503 3.45312C13.7816 3.45312 13.7972 3.46875 13.8128 3.53125L15.8285 10.3906C16.0003 10.9375 16.3597 11.1562 16.9066 11.1406L24.0472 10.9844C24.1097 10.9844 24.1253 10.9844 24.141 11.0156C24.1566 11.0469 24.141 11.0625 24.0941 11.1094L18.1878 15.1406C17.7191 15.4688 17.6253 15.875 17.8128 16.3906L20.1878 23.1406C20.2035 23.2031 20.2035 23.2188 20.1878 23.25C20.1722 23.2812 20.141 23.25 20.0941 23.2188L14.4222 18.8594C14.0003 18.5156 13.516 18.5156 13.0785 18.8594L7.42221 23.2188C7.37534 23.25 7.34409 23.2812 7.31284 23.25Z" fill="white" fill-opacity="0.85"/>
 </g>
</svg>
