<?xml version="1.0" encoding="UTF-8"?>
<!--Generator: Apple Native CoreSVG 326-->
<!DOCTYPE svg
PUBLIC "-//W3C//DTD SVG 1.1//EN"
       "http://www.w3.org/Graphics/SVG/1.1/DTD/svg11.dtd">
<svg version="1.1" xmlns="http://www.w3.org/2000/svg" xmlns:xlink="http://www.w3.org/1999/xlink" viewBox="0 0 44.6186 45.0781">
 <g>
  <path d="M8.48116 41.9375C9.21553 42.4844 10.1374 42.3125 11.2468 41.5L22.1218 33.5312L32.9812 41.5C34.1062 42.3125 35.0124 42.4844 35.7624 41.9375C36.4812 41.3906 36.653 40.4844 36.1999 39.1719L31.9343 26.3906L42.8874 18.5156C44.0124 17.7188 44.4343 16.8906 44.153 16.0156C43.8718 15.1562 43.0437 14.7344 41.653 14.7344L28.1999 14.7344L24.1062 1.96875C23.6687 0.65625 23.028 0 22.1218 0C21.1999 0 20.5593 0.65625 20.1374 1.96875L16.028 14.7344L2.57491 14.7344C1.18428 14.7344 0.371783 15.1562 0.0905329 16.0156C-0.206342 16.8906 0.231158 17.7188 1.34053 18.5156L12.2937 26.3906L8.02803 39.1719C7.59053 40.4844 7.76241 41.3906 8.48116 41.9375Z" fill="green" fill-opacity="0.85"/>
 </g>
</svg>
