<?xml version="1.0" encoding="UTF-8"?>
<!--Generator: Apple Native CoreSVG 326-->
<!DOCTYPE svg
PUBLIC "-//W3C//DTD SVG 1.1//EN"
       "http://www.w3.org/Graphics/SVG/1.1/DTD/svg11.dtd">
<svg version="1.1" xmlns="http://www.w3.org/2000/svg" xmlns:xlink="http://www.w3.org/1999/xlink" viewBox="0 0 54.6094 45.4219">
 <g>
  <path d="M3.9375 45.3594L7.84375 45.3594C10.2656 45.3594 11.8594 43.6406 11.8594 41.7031C11.8594 40.625 11.3906 39.375 10.0938 38.8125C14.0781 37.3594 16.4375 34.7656 17.1406 30.7969C20.0625 32.625 24.6719 32.8906 29.3594 32.3438C29.2656 35.0781 28.8438 39.2812 28.8438 41.1094C28.8438 43.8906 30.3281 45.4219 33.0312 45.4219L36.4062 45.4219C39.1719 45.4219 40.7188 43.6406 40.7188 41.4219C40.7188 39.9688 40.0625 38.2031 37.5625 37.3281C37.6719 35.5938 38.7969 30.9375 39.4219 29.1562C40.4531 26.2188 42.4219 23.5625 42.4219 19.625C42.4219 17.7031 42.8594 16.7656 43.2188 15.9688C44.625 16.8125 45.8594 17.1562 47.2188 17.1562C50.7188 17.1562 54.2344 13.4531 54.2344 9.6875C54.2344 7.65625 51.2969 6.23438 49.6406 5.20312C47.7656 3.9375 46.4062 2.26562 44.5938 1.375L43.9844 3.76562C45.3125 4.53125 46.4375 5.98438 48.1875 7.09375C50.0156 8.29688 51.5625 8.64062 51.5625 10C51.5625 12.0312 49.4062 14.4688 47.2188 14.4688C46.0469 14.4688 45.0781 14.125 43.4219 12.9844C42.75 12.5156 42.0781 12.625 41.6719 13.2344C40.2188 15.375 39.75 17.0625 39.75 19.625C39.75 22.5781 38.0469 24.7656 36.8281 28.4219C36.1719 30.4219 34.8594 35.75 34.8594 37.9375C34.8594 38.4844 35.0781 38.9375 35.7031 39.1562C37.6875 39.6094 38.0312 40.625 38.0312 41.2812C38.0312 42.1719 37.4375 42.6719 36.4062 42.6719L33.1406 42.6719C32.0781 42.6719 31.5469 42.0938 31.5469 41C31.5469 37.1875 32.2656 31.9844 32.2656 30.1406C32.2656 29.3438 31.5625 28.9219 30.7188 29.1875C25.3906 30.9375 19.7344 29.8594 16.5 27.3438C15.7344 26.7344 14.8125 27.1875 14.8125 28.0469C14.8125 33.3125 12.2344 35.875 6.625 37.2656C5.60938 37.5312 5.60938 39.0469 6.625 39.2188C8.26562 39.5 9.17188 40.2188 9.17188 41.2812C9.17188 42.1406 8.5 42.6719 7.5625 42.6719L4.23438 42.6719C3.28125 42.6719 2.67188 42 2.67188 41L2.67188 37.0938C2.67188 35.4531 3.28125 34.4688 5.79688 32.4688C7.89062 30.7969 8.4375 28.6719 8.4375 23.9844C8.4375 21.4375 8.75 18.7812 9.76562 17.3125L7.03125 14.1719C6.09375 13.0938 7.51562 11.9844 8.42188 13.0469L11.0469 16.125C11.4375 15.8438 11.9531 15.6719 12.5938 15.6406L29.8125 14.2031C36.7969 11.7656 36.5 8.5625 38.8281 6.0625L37.2344 3.92188C33.4844 7.4375 34.2188 9.71875 29.2812 11.5469L13.2031 12.8906C12.6094 12.9531 12.1094 13.0156 11.6875 13.1094L10.1719 11.2812C7.39062 7.96875 2.0625 11.9531 5.125 15.6094L6.73438 17.5156C6.09375 19.4219 5.75 21.5312 5.75 23.9844C5.75 28.25 5.4375 29.3438 4.15625 30.375C1.20312 32.7031 0 34.5 0 37.0938L0 41.2812C0 43.6875 1.625 45.3594 3.9375 45.3594ZM40.5781 8.76562C43.6719 8.76562 45.2812 3.48438 45.2812 2.04688C45.2812 0.75 44.5938 0.0625 43.2969 0.0625L37.8906 0.0625C36.5781 0.0625 35.8906 0.75 35.8906 2.04688C35.8906 3.48438 37.5156 8.76562 40.5781 8.76562ZM40.5781 6.40625C39.4375 6.40625 38.5469 3.92188 38.375 2.79688C38.3438 2.5625 38.4844 2.42188 38.7344 2.42188L42.4688 2.42188C42.7031 2.42188 42.8438 2.5625 42.8125 2.79688C42.6406 3.92188 41.75 6.40625 40.5781 6.40625ZM45.75 9.9375C46.5156 9.9375 47.1406 9.29688 47.1406 8.51562C47.1406 7.73438 46.5156 7.10938 45.75 7.10938C44.9531 7.10938 44.3281 7.73438 44.3281 8.51562C44.3281 9.29688 44.9531 9.9375 45.75 9.9375Z" fill="black" fill-opacity="0.85"/>
 </g>
</svg>
