<?xml version="1.0" encoding="UTF-8"?>
<!--Generator: Apple Native CoreSVG 326-->
<!DOCTYPE svg
PUBLIC "-//W3C//DTD SVG 1.1//EN"
       "http://www.w3.org/Graphics/SVG/1.1/DTD/svg11.dtd">
<svg version="1.1" xmlns="http://www.w3.org/2000/svg" xmlns:xlink="http://www.w3.org/1999/xlink" viewBox="0 0 42.8125 41.5156">
 <g>
  <path d="M0 18.7188C0 22.7812 2.0625 25.7969 4.82812 25.7969C7.59375 25.7969 9.67188 22.7812 9.67188 18.7188C9.67188 14.6719 7.59375 11.625 4.82812 11.625C2.0625 11.625 0 14.6719 0 18.7188ZM9.78125 7.07812C9.78125 11.125 11.875 14.1562 14.625 14.1562C17.4062 14.1562 19.4688 11.125 19.4688 7.07812C19.4688 3 17.4062 0 14.625 0C11.875 0 9.78125 3 9.78125 7.07812ZM22.9531 7.07812C22.9531 11.125 25.0312 14.1562 27.7969 14.1562C30.5625 14.1562 32.6406 11.125 32.6406 7.07812C32.6406 3 30.5625 0 27.7969 0C25.0156 0 22.9531 3 22.9531 7.07812ZM32.7656 18.7188C32.7656 22.7812 34.8281 25.7969 37.6094 25.7969C40.375 25.7969 42.4375 22.7812 42.4375 18.7188C42.4375 14.6719 40.375 11.625 37.6094 11.625C34.8281 11.625 32.7656 14.6719 32.7656 18.7188ZM5.92188 34.5938C5.92188 38.6094 8.71875 41.5 12.7656 41.5C14.7656 41.5 16.2188 40.9219 17.625 40.4062C18.7969 39.9688 19.875 39.5938 21.2031 39.5938C22.5312 39.5938 23.625 39.9688 24.7812 40.4062C26.1875 40.9219 27.6562 41.5 29.6562 41.5C33.6875 41.5 36.4844 38.6094 36.4844 34.5938C36.4844 31.0312 34.3125 29.2031 32.2812 27.5469C31.1875 26.6562 30.125 25.8125 29.4219 24.7188C28.8594 23.8438 28.3906 22.875 27.9531 21.9219C26.5312 18.8281 25.2812 15.7344 21.2031 15.7344C17.1094 15.7344 15.875 18.8438 14.4531 21.9219C14.0312 22.8594 13.5781 23.8125 13.0156 24.6562C12.3125 25.7656 11.2344 26.6406 10.125 27.5469C8.09375 29.2188 5.92188 31.0469 5.92188 34.5938Z" fill="black" fill-opacity="0.85"/>
 </g>
</svg>
