<?xml version="1.0" encoding="UTF-8"?>
<!--Generator: Apple Native CoreSVG 326-->
<!DOCTYPE svg
PUBLIC "-//W3C//DTD SVG 1.1//EN"
       "http://www.w3.org/Graphics/SVG/1.1/DTD/svg11.dtd">
<svg version="1.1" xmlns="http://www.w3.org/2000/svg" xmlns:xlink="http://www.w3.org/1999/xlink" viewBox="0 0 36.875 42.9219">
 <g>
  <path d="M18.25 0C17.6094 0 16.8906 0.234375 16.125 1.0625L1.17188 16.9375C0.390625 17.7812 0 18.5156 0 19.4219C0 20.6719 0.921875 21.5312 2.15625 21.5312L10.0781 21.5312L10.0781 38.1875C10.0781 41.2031 11.75 42.9219 14.7031 42.9219L21.7188 42.9219C24.6719 42.9219 26.3594 41.2031 26.3594 38.1875L26.3594 21.5312L34.25 21.5312C35.4844 21.5312 36.5 20.6719 36.5 19.3906C36.5 18.4844 36.0938 17.8594 35.2188 16.9375L20.3906 1.0625C19.6094 0.21875 18.8906 0 18.25 0ZM18.25 3.07812C18.4219 3.07812 18.5781 3.15625 18.8125 3.39062L32.7656 18.0625C32.875 18.1875 32.9688 18.3125 32.9688 18.4688C32.9688 18.6406 32.8438 18.7656 32.6562 18.7656L24.3906 18.7656C23.9375 18.7656 23.75 18.9688 23.75 19.4062L23.75 38.1562C23.75 39.5469 22.9844 40.3125 21.5938 40.3125L14.8281 40.3125C13.4531 40.3125 12.6875 39.5469 12.6875 38.1562L12.6875 19.4062C12.6875 18.9688 12.4844 18.7656 12.0469 18.7656L3.98438 18.7656C3.78125 18.7656 3.65625 18.6562 3.65625 18.4688C3.65625 18.3438 3.71875 18.2188 3.85938 18.0781L17.6875 3.39062C17.9219 3.14062 18.0781 3.07812 18.25 3.07812Z" fill="black" fill-opacity="0.85"/>
 </g>
</svg>
