<?xml version="1.0" encoding="UTF-8"?>
<!--Generator: Apple Native CoreSVG 326-->
<!DOCTYPE svg
PUBLIC "-//W3C//DTD SVG 1.1//EN"
       "http://www.w3.org/Graphics/SVG/1.1/DTD/svg11.dtd">
<svg version="1.1" xmlns="http://www.w3.org/2000/svg" xmlns:xlink="http://www.w3.org/1999/xlink" viewBox="0 0 44.9688 36.5156">
 <g>
  <path d="M0 18.25C0 18.875 0.234375 19.5938 1.0625 20.375L16.9375 35.3125C17.7812 36.1094 18.5156 36.4844 19.4219 36.4844C20.6719 36.4844 21.5312 35.5781 21.5312 34.3438L21.5312 26L38.5 26C41.3125 26 42.9219 24.4531 42.9219 21.6875L42.9219 14.8594C42.9219 12.1094 41.3125 10.5469 38.5 10.5469L21.5312 10.5469L21.5312 2.25C21.5312 1.01562 20.6719 0 19.3906 0C18.4844 0 17.8594 0.40625 16.9375 1.26562L1.0625 16.0938C0.21875 16.8906 0 17.5938 0 18.25Z" fill="green" fill-opacity="0.85"/>
 </g>
</svg>
