<?xml version="1.0" encoding="UTF-8"?>
<!--Generator: Apple Native CoreSVG 326-->
<!DOCTYPE svg
PUBLIC "-//W3C//DTD SVG 1.1//EN"
       "http://www.w3.org/Graphics/SVG/1.1/DTD/svg11.dtd">
<svg version="1.1" xmlns="http://www.w3.org/2000/svg" xmlns:xlink="http://www.w3.org/1999/xlink" viewBox="0 0 36.875 42.9844">
 <g>
  <path d="M18.25 0C17.6094 0 16.8906 0.234375 16.125 1.0625L1.17188 16.9375C0.390625 17.7812 0 18.5156 0 19.4219C0 20.6719 0.921875 21.5312 2.15625 21.5312L10.4844 21.5312L10.4844 38.5C10.4844 41.3125 12.0469 42.9219 14.7969 42.9219L21.625 42.9219C24.3906 42.9219 25.9375 41.3125 25.9375 38.5L25.9375 21.5312L34.25 21.5312C35.4844 21.5312 36.5 20.6719 36.5 19.3906C36.5 18.4844 36.0938 17.8594 35.2188 16.9375L20.3906 1.0625C19.6094 0.21875 18.8906 0 18.25 0Z" fill="white" fill-opacity="0.85"/>
 </g>
</svg>
