<?xml version="1.0" encoding="UTF-8"?>
<!--Generator: Apple Native CoreSVG 326-->
<!DOCTYPE svg
PUBLIC "-//W3C//DTD SVG 1.1//EN"
       "http://www.w3.org/Graphics/SVG/1.1/DTD/svg11.dtd">
<svg version="1.1" xmlns="http://www.w3.org/2000/svg" xmlns:xlink="http://www.w3.org/1999/xlink" viewBox="0 0 45.977 45.8829">
 <g>
   <path d="M0.636932 24.293L7.10568 30.1524C8.34006 31.3086 9.99631 30.418 9.99631 28.8243L9.99631 24.4493L21.2932 24.4493L21.2932 35.8086L16.8869 35.8086C15.2932 35.8086 14.4026 37.4649 15.5744 38.6993L21.4338 45.168C22.2307 46.043 23.4338 45.9961 24.1994 45.1524L30.0432 38.6993C31.1994 37.4649 30.3088 35.8086 28.7151 35.8086L24.3401 35.8086L24.3401 24.4493L35.6057 24.4493L35.6057 28.8243C35.6057 30.418 37.2619 31.3086 38.4963 30.1524L44.9494 24.3086C45.8088 23.5118 45.8244 22.3243 44.9651 21.5274L38.4963 15.668C37.2619 14.5118 35.6057 15.4024 35.6057 16.9961L35.6057 21.3868L24.3401 21.3868L24.3401 10.0118L28.7151 10.0118C30.3088 10.0118 31.1994 8.35552 30.0432 7.10552L24.1838 0.636772C23.4026-0.222603 22.1994-0.206978 21.4182 0.652397L15.5744 7.10552C14.4026 8.35552 15.2932 10.0118 16.8869 10.0118L21.2932 10.0118L21.2932 21.3868L9.99631 21.3868L9.99631 16.9961C9.99631 15.4024 8.34006 14.5118 7.10568 15.668L0.652557 21.5118C-0.191193 22.293-0.238068 23.4805 0.636932 24.293Z" fill="green" fill-opacity="0.85"/>
 </g>
</svg>
