<?xml version="1.0" encoding="UTF-8"?>
<!--Generator: Apple Native CoreSVG 326-->
<!DOCTYPE svg
PUBLIC "-//W3C//DTD SVG 1.1//EN"
       "http://www.w3.org/Graphics/SVG/1.1/DTD/svg11.dtd">
<svg version="1.1" xmlns="http://www.w3.org/2000/svg" xmlns:xlink="http://www.w3.org/1999/xlink" viewBox="0 0 24.6719 29.7969">
 <g>
  <rect height="29.7969" opacity="0" width="24.6719" x="0" y="0"/>
  <path d="M1.45312 29.75C2.32812 29.75 2.78125 29.4062 3.10938 28.4688L5.98438 20.7031L18.2812 20.7031L21.1562 28.4688C21.4844 29.4062 21.9375 29.75 22.8125 29.75C23.7188 29.75 24.2969 29.2188 24.2969 28.3438C24.2969 28.0625 24.2344 27.7812 24.1094 27.4219L14.2969 1.5625C13.9062 0.53125 13.2188 0 12.1406 0C11.0781 0 10.375 0.515625 10.0156 1.54688L0.1875 27.4375C0.0625 27.7969 0 28.0781 0 28.3594C0 29.2344 0.546875 29.75 1.45312 29.75ZM6.82812 18.1094L12.0781 3.875L12.1875 3.875L17.4219 18.1094Z" fill="white" fill-opacity="0.85"/>
 </g>
</svg>
