<?xml version="1.0" encoding="UTF-8"?>
<!--Generator: Apple Native CoreSVG 326-->
<!DOCTYPE svg
PUBLIC "-//W3C//DTD SVG 1.1//EN"
       "http://www.w3.org/Graphics/SVG/1.1/DTD/svg11.dtd">
<svg version="1.1" xmlns="http://www.w3.org/2000/svg" xmlns:xlink="http://www.w3.org/1999/xlink" viewBox="0 0 46.9721 52.9102">
 <g>
  <path d="M33.2282 13.166C30.3376 13.166 28.1501 14.6504 26.3376 18.8223C20.7907 13.0254 11.447 7.58789 2.07199 6.88477C0.415744 6.79102 0.0876194 7.96289 0.0407444 9.05664C-0.646756 19.2754 7.44699 27.8848 18.197 28.666C15.3532 35.416 10.697 41.1348 5.97824 45.5566C5.30637 46.166 5.44699 46.9785 5.90012 47.6973C8.19699 51.2285 15.4001 53.3379 20.2907 51.6348C21.2595 51.2754 21.4626 50.8379 21.4626 49.9629L21.4626 42.1816C27.0564 42.0098 35.7907 38.5723 34.2282 27.541L33.947 25.7754C38.1345 24.8379 40.8845 22.2754 40.8845 19.7285C40.8845 16.5879 37.4626 13.166 33.2282 13.166ZM35.2907 19.9473C34.6189 19.9473 34.0876 19.416 34.0876 18.7598C34.0876 18.1035 34.6189 17.5566 35.2907 17.5566C35.9314 17.5566 36.4782 18.1035 36.4782 18.7598C36.4782 19.416 35.9314 19.9473 35.2907 19.9473ZM38.5095 22.5254L45.3376 23.4785C46.5876 23.6504 47.1657 21.8066 45.8845 21.2754L39.7126 18.6973ZM30.6189 11.0254C28.0407 6.27539 24.7126 2.83789 20.3689 0.369144C18.9626-0.443356 17.5876 0.134769 17.197 1.61914C16.5564 3.79102 16.1814 6.08789 16.1032 8.38477C19.7126 10.1816 23.0095 12.416 25.7126 14.8066C27.1501 12.7754 28.7907 11.5723 30.6189 11.0254Z" fill="red" fill-opacity="0.85"/>
 </g>
</svg>
