<?xml version="1.0" encoding="UTF-8"?>
<!--Generator: Apple Native CoreSVG 326-->
<!DOCTYPE svg
PUBLIC "-//W3C//DTD SVG 1.1//EN"
       "http://www.w3.org/Graphics/SVG/1.1/DTD/svg11.dtd">
<svg version="1.1" xmlns="http://www.w3.org/2000/svg" xmlns:xlink="http://www.w3.org/1999/xlink" viewBox="0 0 53.3438 45.9531">
 <g>
  <path d="M10.5469 45.9531L12.5156 45.9531C14.6719 45.9531 15.8906 44.9062 15.8906 42.9844C15.8906 41.6094 14.8438 40.4375 12.8594 40.0781L12.8594 35.3594C12.8594 33.3125 13.3125 32.125 14.5156 30.2188C17.7812 31.4844 20.2656 31.9219 23.0938 31.9219C26.2656 31.9219 29.7031 31.4375 31.7656 30.8594C32.2188 32.5625 32.7031 34.4688 32.7031 36.2031C32.7031 38.6719 32.4219 40.8438 32.4219 42.8281C32.4219 44.9062 33.5625 45.9531 35.6875 45.9531L37.875 45.9531C39.9688 45.9531 41.25 44.8281 41.25 42.9844C41.25 41.4531 40.3906 40.4062 38.6562 40.1406L38.6562 38.0938C38.6562 27.2656 46.5625 30.2812 46.7188 16.6094C50.3906 16.3906 52.9688 14.0312 52.9688 12.2812C52.9688 9.78125 50.3438 7.20312 47.3125 5.04688C46.7031 2.82812 45.5156 1.03125 44.5469 1.03125C43.6406 1.03125 42.2656 2.57812 41.4375 5.03125C39.8438 6.57812 38.4531 8.57812 37.4062 10.4219L36.4688 11.9844C35.8125 13.1875 35.25 13.9062 34.4531 13.9062C26.7188 13.9062 23.6406 12.7969 16.3438 12.7969C12.7656 12.7969 10.5625 14.0781 9.21875 15.7812C8.53125 16.6094 8.04688 16.7969 6.90625 16.3594C4.3125 15.4688 2.51562 13.0156 2.51562 9.90625C2.51562 5.70312 5.85938 2.78125 10.5938 2.78125C12.375 2.78125 14.1875 3.15625 16.2969 4C18.0938 4.71875 18.9375 2.32812 17.2969 1.65625C14.9062 0.6875 12.6406 0.265625 10.5938 0.265625C4.3125 0.265625 0 4.1875 0 9.90625C0 14.0938 2.28125 17.3594 5.8125 18.625C6.82812 19.0156 7.1875 19.7031 7.14062 20.7812C7.03125 22.2969 7.03125 23.1875 7.03125 23.7969C7.03125 30.2188 4.1875 31.3438 4.96875 34.2344L7.42188 43.2656C7.90625 45.0938 8.98438 45.9531 10.5469 45.9531ZM46.8281 10.9375C46.1875 10.9375 45.6719 10.4531 45.6719 9.79688C45.6719 9.17188 46.1875 8.64062 46.8281 8.64062C47.4688 8.64062 47.9688 9.17188 47.9688 9.79688C47.9688 10.4531 47.4688 10.9375 46.8281 10.9375Z" fill="black" fill-opacity="0.85"/>
 </g>
</svg>
