<?xml version="1.0" encoding="UTF-8"?>
<!--Generator: Apple Native CoreSVG 326-->
<!DOCTYPE svg
PUBLIC "-//W3C//DTD SVG 1.1//EN"
       "http://www.w3.org/Graphics/SVG/1.1/DTD/svg11.dtd">
<svg version="1.1" xmlns="http://www.w3.org/2000/svg" xmlns:xlink="http://www.w3.org/1999/xlink" viewBox="0 0 53.625 44.9844">
 <g>
  <path d="M3.45312 44.6562L7.35938 44.6562C9.54688 44.6562 10.875 43.25 10.875 41.5C10.875 39.7812 9.9375 38.9688 8.125 38.8125C7.26562 38.7344 7.26562 37.6562 8.03125 37.5781C12.8906 36.9531 15.7188 34.2656 16.2969 29.8125C19.25 31.9688 24.5469 32.3281 29.3594 31.6094C29.2969 34.4531 28.8594 38.7344 28.8594 40.7969C28.8594 43.125 30.3438 44.6562 32.6094 44.6562L35.9688 44.6562C38.1562 44.6562 39.4531 43.25 39.4531 41.5938C39.4531 40 38.7344 39.2031 36.4531 38.8125C36.0312 38.7344 35.7969 38.4219 35.9062 37.9688C36.2656 35.9531 37.5469 31.4688 38.2031 29.5938C39.5469 25.7031 41.4375 22.9219 41.4375 18.8594C41.4375 16.7656 42.0312 15.6562 42.4844 15.0781C44.0781 16.0469 45.2656 16.4688 46.7344 16.4688C50.0469 16.4688 53.25 13.0312 53.25 9.54688C53.25 7.6875 51.6406 7.53125 49.5938 6.28125C47.8438 5.15625 46.9375 3.78125 45.5781 3C45.0625 5.45312 43.1719 9.5 39.8125 9.5C37.7188 9.5 36.2031 7.90625 35.25 6.14062C33.6406 8.35938 33.0781 10.2969 28.8906 11.8281L11.625 13.2031C11.1406 13.2344 10.75 13.375 10.5156 13.4844L8.95312 11.625C6.65625 8.875 2.96875 12.0781 5.28125 14.7656L6.98438 16.75C6.17188 18.7344 5.75 20.9844 5.75 23.7812C5.75 28.1875 5.42188 29.3906 3.98438 30.5469C1.07812 32.8438 0 34.4531 0 37.1719L0 41.0781C0 43.2031 1.42188 44.6562 3.45312 44.6562ZM46.6094 9.78125C45.9062 9.78125 45.375 9.25 45.375 8.5625C45.375 7.85938 45.9062 7.34375 46.6094 7.34375C47.2812 7.34375 47.8125 7.85938 47.8125 8.5625C47.8125 9.25 47.2812 9.78125 46.6094 9.78125ZM39.8125 7.84375C42.5781 7.84375 44.0469 3.0625 44.0469 1.78125C44.0469 0.609375 43.4375 0 42.2656 0L37.3594 0C36.2031 0 35.5781 0.609375 35.5781 1.78125C35.5781 3.0625 37.0312 7.84375 39.8125 7.84375Z" fill="blue" fill-opacity="0.85"/>
 </g>
</svg>
