<?xml version="1.0" encoding="UTF-8"?>
<!--Generator: Apple Native CoreSVG 326-->
<!DOCTYPE svg
PUBLIC "-//W3C//DTD SVG 1.1//EN"
       "http://www.w3.org/Graphics/SVG/1.1/DTD/svg11.dtd">
<svg version="1.1" xmlns="http://www.w3.org/2000/svg" xmlns:xlink="http://www.w3.org/1999/xlink" viewBox="0 0 55.216 42.6234">
 <g>
  <path d="M0.0533211 33.3976C0.131446 34.1945 0.584571 34.5539 1.39707 34.5382C6.1627 34.4601 10.1471 32.2257 13.6471 28.0851C17.3814 31.8507 21.6939 34.0851 26.2564 35.0851L25.5533 40.757C25.3971 42.1007 26.1314 42.8351 27.6783 42.5695C32.5533 41.8195 37.9127 38.382 40.8189 34.3351C48.1002 32.1476 54.8346 27.632 54.8346 22.132C54.8346 16.9445 48.8033 12.6164 41.9752 10.2726C39.3814 1.91325 28.2564-1.91488 20.3814 2.46012C19.6002 2.86637 19.5221 3.53825 20.1471 4.36637C21.9596 6.77262 22.6002 8.21012 22.9596 10.1476C19.6158 11.382 16.4752 13.3507 13.6471 16.1945C10.1471 12.0539 6.1627 9.8195 1.39707 9.74137C0.584571 9.72575 0.131446 10.1007 0.0533211 10.882C-0.352929 15.0539 1.6002 19.5226 4.61582 22.132C1.6002 24.7414-0.352929 29.2257 0.0533211 33.3976ZM44.4283 23.2726C43.3658 23.2726 42.4596 22.3664 42.4596 21.3039C42.4596 20.2257 43.3658 19.3351 44.4283 19.3351C45.5064 19.3351 46.3971 20.2257 46.3971 21.3039C46.3971 22.3664 45.5064 23.2726 44.4283 23.2726Z" fill="green" fill-opacity="0.85"/>
 </g>
</svg>
