<?xml version="1.0" encoding="UTF-8"?>
<!--Generator: Apple Native CoreSVG 326-->
<!DOCTYPE svg
PUBLIC "-//W3C//DTD SVG 1.1//EN"
       "http://www.w3.org/Graphics/SVG/1.1/DTD/svg11.dtd">
<svg version="1.1" xmlns="http://www.w3.org/2000/svg" xmlns:xlink="http://www.w3.org/1999/xlink" viewBox="0 0 44.2188 36.5156">
 <g>
   <path d="M44.2188 18.25C44.2188 17.5938 43.9844 16.8906 43.1562 16.0938L27.2656 1.26562C26.3438 0.40625 25.7188 0 24.8281 0C23.5469 0 22.6719 1.01562 22.6719 2.25L22.6719 10.5469L5.71875 10.5469C2.89062 10.5469 1.28125 12.1094 1.28125 14.8594L1.28125 21.6875C1.28125 24.4531 2.89062 26 5.71875 26L22.6719 26L22.6719 34.3438C22.6719 35.5781 23.5469 36.4844 24.7969 36.4844C25.6875 36.4844 26.4219 36.1094 27.2656 35.3125L43.1562 20.375C43.9844 19.5938 44.2188 18.875 44.2188 18.25Z" fill="red" fill-opacity="0.85"/>
 </g>
</svg>
