<?xml version="1.0" encoding="UTF-8"?>
<!--Generator: Apple Native CoreSVG 326-->
<!DOCTYPE svg
PUBLIC "-//W3C//DTD SVG 1.1//EN"
       "http://www.w3.org/Graphics/SVG/1.1/DTD/svg11.dtd">
<svg version="1.1" xmlns="http://www.w3.org/2000/svg" xmlns:xlink="http://www.w3.org/1999/xlink" viewBox="0 0 44.9688 36.5156">
 <g>
  <path d="M0 18.25C0 18.875 0.234375 19.5938 1.0625 20.375L16.9375 35.3125C17.7812 36.1094 18.5156 36.4844 19.4219 36.4844C20.6719 36.4844 21.5312 35.5781 21.5312 34.3438L21.5312 26.4219L38.1875 26.4219C41.2031 26.4219 42.9219 24.7344 42.9219 21.7812L42.9219 14.7656C42.9219 11.8125 41.2031 10.1406 38.1875 10.1406L21.5312 10.1406L21.5312 2.25C21.5312 1.01562 20.6719 0 19.3906 0C18.4844 0 17.8594 0.40625 16.9375 1.26562L1.0625 16.0938C0.21875 16.8906 0 17.5938 0 18.25ZM3.07812 18.25C3.07812 18.0781 3.15625 17.9062 3.39062 17.6875L18.0625 3.71875C18.1875 3.625 18.3125 3.53125 18.4688 3.53125C18.6406 3.53125 18.7656 3.65625 18.7656 3.82812L18.7656 12.1094C18.7656 12.5469 18.9531 12.75 19.4062 12.75L38.1562 12.75C39.5469 12.75 40.3125 13.5156 40.3125 14.8906L40.3125 21.6562C40.3125 23.0469 39.5469 23.8125 38.1562 23.8125L19.4062 23.8125C18.9531 23.8125 18.7656 24 18.7656 24.4531L18.7656 32.5156C18.7656 32.7031 18.6562 32.8281 18.4688 32.8281C18.3438 32.8281 18.2188 32.7812 18.0781 32.6406L3.39062 18.8125C3.14062 18.5781 3.07812 18.4219 3.07812 18.25Z" fill="green" fill-opacity="0.85"/>
 </g>
</svg>
