<?xml version="1.0" encoding="UTF-8"?>
<!--Generator: Apple Native CoreSVG 326-->
<!DOCTYPE svg
PUBLIC "-//W3C//DTD SVG 1.1//EN"
       "http://www.w3.org/Graphics/SVG/1.1/DTD/svg11.dtd">
<svg version="1.1" xmlns="http://www.w3.org/2000/svg" xmlns:xlink="http://www.w3.org/1999/xlink" viewBox="0 0 36.875 42.9844">
 <g>
  <path d="M18.25 42.9219C18.8906 42.9219 19.6094 42.7031 20.3906 41.875L35.2188 25.9844C36.0938 25.0625 36.5 24.4375 36.5 23.5469C36.5 22.2656 35.4844 21.3906 34.25 21.3906L25.9375 21.3906L25.9375 4.42188C25.9375 1.60938 24.3906 0 21.625 0L14.7969 0C12.0469 0 10.4844 1.60938 10.4844 4.42188L10.4844 21.3906L2.15625 21.3906C0.921875 21.3906 0 22.2656 0 23.5156C0 24.4062 0.390625 25.1406 1.17188 25.9844L16.125 41.875C16.8906 42.6875 17.6094 42.9219 18.25 42.9219Z" fill="blue" fill-opacity="0.85"/>
 </g>
</svg>
