<?xml version="1.0" encoding="UTF-8"?>
<!--Generator: Apple Native CoreSVG 326-->
<!DOCTYPE svg
PUBLIC "-//W3C//DTD SVG 1.1//EN"
       "http://www.w3.org/Graphics/SVG/1.1/DTD/svg11.dtd">
<svg version="1.1" xmlns="http://www.w3.org/2000/svg" xmlns:xlink="http://www.w3.org/1999/xlink" viewBox="0 0 36.875 42.9219">
 <g>
  <path d="M18.25 42.9219C18.8906 42.9219 19.6094 42.7031 20.3906 41.875L35.2188 25.9844C36.0938 25.0625 36.5 24.4375 36.5 23.5469C36.5 22.2656 35.4844 21.3906 34.25 21.3906L26.3594 21.3906L26.3594 4.75C26.3594 1.71875 24.6719 0 21.7188 0L14.7031 0C11.75 0 10.0781 1.71875 10.0781 4.75L10.0781 21.3906L2.15625 21.3906C0.921875 21.3906 0 22.2656 0 23.5156C0 24.4062 0.390625 25.1406 1.17188 25.9844L16.125 41.875C16.8906 42.6875 17.6094 42.9219 18.25 42.9219ZM18.25 39.8594C18.0781 39.8594 17.9219 39.7812 17.6875 39.5312L3.85938 24.8438C3.71875 24.7031 3.65625 24.5781 3.65625 24.4531C3.65625 24.2656 3.78125 24.1562 3.98438 24.1562L12.0469 24.1562C12.4844 24.1562 12.6875 23.9688 12.6875 23.5156L12.6875 4.78125C12.6875 3.39062 13.4531 2.60938 14.8281 2.60938L21.5938 2.60938C22.9844 2.60938 23.75 3.39062 23.75 4.78125L23.75 23.5156C23.75 23.9688 23.9375 24.1562 24.3906 24.1562L32.6562 24.1562C32.8438 24.1562 32.9688 24.2812 32.9688 24.4688C32.9688 24.625 32.875 24.7344 32.7656 24.8594L18.8125 39.5312C18.5781 39.7656 18.4219 39.8594 18.25 39.8594Z" fill="red" fill-opacity="0.85"/>
 </g>
</svg>
