<?xml version="1.0" encoding="UTF-8"?>
<!--Generator: Apple Native CoreSVG 326-->
<!DOCTYPE svg
PUBLIC "-//W3C//DTD SVG 1.1//EN"
       "http://www.w3.org/Graphics/SVG/1.1/DTD/svg11.dtd">
<svg version="1.1" xmlns="http://www.w3.org/2000/svg" xmlns:xlink="http://www.w3.org/1999/xlink" viewBox="0 0 44.2188 36.5156">
 <g>
  <path d="M44.2188 18.25C44.2188 17.5938 43.9844 16.8906 43.1562 16.0938L27.2656 1.26562C26.3438 0.40625 25.7188 0 24.8281 0C23.5469 0 22.6719 1.01562 22.6719 2.25L22.6719 10.1406L6.03125 10.1406C3 10.1406 1.28125 11.8125 1.28125 14.7656L1.28125 21.7812C1.28125 24.7344 3 26.4219 6.03125 26.4219L22.6719 26.4219L22.6719 34.3438C22.6719 35.5781 23.5469 36.4844 24.7969 36.4844C25.6875 36.4844 26.4219 36.1094 27.2656 35.3125L43.1562 20.375C43.9844 19.5938 44.2188 18.875 44.2188 18.25ZM41.1406 18.25C41.1406 18.4219 41.0625 18.5781 40.8125 18.8125L26.1406 32.6406C25.9844 32.7812 25.8594 32.8281 25.7344 32.8281C25.5625 32.8281 25.4375 32.7031 25.4375 32.5156L25.4375 24.4531C25.4375 24 25.25 23.8125 24.7969 23.8125L6.0625 23.8125C4.67188 23.8125 3.89062 23.0469 3.89062 21.6562L3.89062 14.8906C3.89062 13.5156 4.67188 12.75 6.0625 12.75L24.7969 12.75C25.25 12.75 25.4375 12.5469 25.4375 12.1094L25.4375 3.82812C25.4375 3.65625 25.5625 3.53125 25.75 3.53125C25.9062 3.53125 26.0312 3.625 26.1406 3.71875L40.8125 17.6875C41.0625 17.9062 41.1406 18.0781 41.1406 18.25Z" fill="red" fill-opacity="0.85"/>
 </g>
</svg>
