<?xml version="1.0" encoding="UTF-8"?>
<!--Generator: Apple Native CoreSVG 326-->
<!DOCTYPE svg
PUBLIC "-//W3C//DTD SVG 1.1//EN"
       "http://www.w3.org/Graphics/SVG/1.1/DTD/svg11.dtd">
<svg version="1.1" xmlns="http://www.w3.org/2000/svg" xmlns:xlink="http://www.w3.org/1999/xlink" viewBox="0 0 88.6746 90.1562">
 <g>
  <rect height="90.1562" opacity="0" width="88.6746" x="0" y="0"/>
  <path d="M16.9623 83.875C18.4311 84.9688 20.2748 84.625 22.4936 83L44.2436 67.0625L65.9623 83C68.2123 84.625 70.0248 84.9688 71.5248 83.875C72.9623 82.7812 73.3061 80.9688 72.3998 78.3438L63.8686 52.7812L85.7748 37.0312C88.0248 35.4375 88.8686 33.7812 88.3061 32.0312C87.7436 30.3125 86.0873 29.4375 83.3061 29.4688L56.3998 29.625L48.2123 3.9375C47.3373 1.3125 46.0561 0 44.2436 0C42.3998 0 41.1186 1.3125 40.2748 3.9375L32.0561 29.625L5.14982 29.4688C2.36857 29.4375 0.743566 30.3125 0.181066 32.0312C-0.412684 33.7812 0.462316 35.4375 2.68107 37.0312L24.5873 52.7812L16.0561 78.3438C15.1811 80.9688 15.5248 82.7812 16.9623 83.875ZM21.8373 77.1875C21.7436 77.0938 21.7748 77.0312 21.8373 76.7812L30.0248 52.875C30.5248 51.4375 30.2436 50.2812 28.9623 49.4062L8.24357 34.9375C8.02482 34.8125 7.93107 34.7188 7.99357 34.5938C8.05607 34.4688 8.14982 34.4688 8.43107 34.4688L33.6811 34.8125C35.1811 34.8438 36.1498 34.2188 36.6186 32.75L43.9623 8.59375C44.0561 8.3125 44.1186 8.21875 44.2436 8.21875C44.3686 8.21875 44.4311 8.3125 44.4936 8.59375L51.8373 32.75C52.3061 34.2188 53.2748 34.8438 54.7748 34.8125L80.0561 34.4688C80.3061 34.4688 80.4311 34.4688 80.4623 34.5938C80.5248 34.7188 80.4311 34.8125 80.2123 34.9375L59.5248 49.4062C58.2123 50.2812 57.9311 51.4375 58.4311 52.875L66.6186 76.7812C66.6811 77.0312 66.7436 77.0938 66.6498 77.1875C66.5561 77.3125 66.4311 77.2188 66.2123 77.0938L46.0873 61.8438C44.8998 60.9375 43.5561 60.9375 42.3998 61.8438L22.2436 77.0938C22.0561 77.2188 21.9311 77.3125 21.8373 77.1875Z" fill="white" fill-opacity="0.85"/>
 </g>
</svg>
